<?xml version="1.0" encoding="utf-8"?>
<!-- Generator: Adobe Illustrator 26.0.3, SVG Export Plug-In . SVG Version: 6.00 Build 0)  -->
<svg version="1.0" id="katman_1" xmlns="http://www.w3.org/2000/svg" xmlns:xlink="http://www.w3.org/1999/xlink" x="0px" y="0px"
	 viewBox="0 0 600 450" style="enable-background:new 0 0 600 450;" xml:space="preserve">
<style type="text/css">
	.st0{fill:#34A0DA;}
	.st1{fill:#0F94CE;}
	.st2{fill:#010202;}
</style>
<path class="st0" d="M87.2,247.6v-46c0-8.5,4.4-16.4,11.7-21l36-22.4c10.6-6.6,24.1-6.6,34.8,0l38.6,24.1c10.5,6.5,11.6,21.5,2,29.2
	c-6.1,4.6-12.8,8.4-19.9,11.3l-30.2-18.9c-4.6-2.9-10.6-3-15.2-0.2l-49.1,28.9C90.5,235.8,87.3,241.4,87.2,247.6z"/>
<path class="st1" d="M216.5,197.5v46.6c0,8.2-4.2,15.8-11.1,20.1l-37.1,23.1c-10.3,6.4-23.4,6.4-33.7,0l-39.2-24.4
	c-8.3-5.2-10.8-16.2-5.5-24.5c1.2-1.9,2.8-3.6,4.6-5l18.8-11l30.2,18.9c4.6,2.9,10.6,3,15.2,0.2l49.5-29.2c5-3,8.1-8.3,8.1-14.1
	v-0.6H216.5z"/>
<path class="st2" d="M269.4,224.3c0.1-1.8,0.2-3.7,0.5-5.5c1.1-10,5.6-19.3,12.9-26.3c6.7-6.7,15.5-10.9,25-12.1
	c9.7-1.4,19.6,0.1,28.4,4.4c4.6,2.3,8.8,5.5,12.3,9.4l0.8,0.8c0.6-4.6,1.2-8.9,1.8-13.3h10.8v87.1h-11.3l-1.4-12.9
	c-0.2,0.2-0.5,0.4-0.6,0.5c-6.5,7.2-15.3,12-24.8,13.6c-10.2,2-20.8,0.5-30-4.2c-10.6-5.3-18.4-14.5-21.9-25.8
	c-1.3-4-2-8.2-2.2-12.4c0-0.4-0.1-0.7-0.1-1.1L269.4,224.3z M315.5,193.1c-1,0-1.9,0-3,0.1c-0.8,0.1-1.7,0.2-2.5,0.4
	c-10.3,1.7-18.1,7.2-22.9,16.7c-3.2,6.5-4.3,13.8-2.9,20.9c1.4,9.7,7.6,18.3,16.5,22.7c6.6,3.4,14.2,4.4,21.4,3
	c10.7-2,18.5-7.9,22.9-18c2.8-6.4,3.5-13.3,2.2-20.2c-1.1-6.4-4.1-12.3-8.8-16.8C332,195.8,324.3,193.1,315.5,193.1z"/>
<path class="st2" d="M400.9,257.4v42.4h-13.6V181.6h9.5c1,4.3,1.8,8.8,2.8,13.2c1.4-1.4,2.8-2.8,4.2-4.1c6.6-5.9,14.8-9.5,23.5-10.5
	c7.7-1.1,15.5-0.2,22.8,2.5c11.9,4.3,21.3,13.8,25.4,25.8c2.4,6.7,3.2,13.9,2.5,21c-0.5,7.2-2.6,14.2-6.5,20.4
	c-6,10.2-16.1,17.4-27.8,19.7c-10.8,2.5-22.2,1.1-32.1-4.1c-3.6-1.9-6.8-4.3-9.7-7.2c-0.2-0.4-0.6-0.7-0.8-1.1H400.9z M464.6,224.3
	c-0.1-1.2-0.2-3.1-0.5-5c-1.6-9.1-6-16.5-14.1-21.5c-6.8-4.3-15.1-5.9-23.2-4.4c-9,1.2-16.9,6.4-21.6,14.2c-4.3,7-5.9,15.4-4.3,23.4
	c1.2,7.8,5.3,14.8,11.4,19.6c12.4,9.3,29.4,8.9,41.3-1C461.3,243.3,464.4,234.9,464.6,224.3z"/>
<path class="st2" d="M512.9,268.7h-13.7v-87.1h13.7V268.7z"/>
<path class="st2" d="M498.7,166.4v-15.5h14.8v15.5H498.7z"/>
</svg>
