<?xml version="1.0" encoding="utf-8"?>
<!-- Generator: Adobe Illustrator 19.2.1, SVG Export Plug-In . SVG Version: 6.00 Build 0)  -->
<svg version="1.1" id="layer" xmlns="http://www.w3.org/2000/svg" xmlns:xlink="http://www.w3.org/1999/xlink" x="0px" y="0px"
	 viewBox="0 0 652 652" style="enable-background:new 0 0 652 652;" xml:space="preserve">
<style type="text/css">
	.st0{fill:#01AFE8;}
</style>
<path class="st0" d="M78.5,323.6c0,9-2.7,16.5-8,22.6c-5.6,6.4-12.8,9.6-21.7,9.6c-8.9,0-16.1-3.2-21.7-9.6c-5.4-6.1-8-13.7-8-22.6
	c0-9,2.7-16.5,8-22.6c5.6-6.3,12.9-9.5,21.7-9.5c8.9,0,16.1,3.2,21.7,9.5C75.8,307.1,78.5,314.6,78.5,323.6L78.5,323.6z M60.8,323.6
	c0-4.1-1-7.5-2.9-10.3c-2.2-3.1-5.2-4.7-9.1-4.7c-3.9,0-7,1.6-9.1,4.7c-2,2.8-2.9,6.2-2.9,10.3c0,4,1,7.5,2.9,10.4
	c2.2,3.1,5.2,4.7,9.1,4.7c3.9,0,7-1.6,9.1-4.7C59.8,331.1,60.8,327.6,60.8,323.6L60.8,323.6z M142.4,323.6c0,8.4-2.4,15.7-7.3,21.9
	c-5.2,6.8-11.9,10.3-20,10.3c-5.7,0-10.6-1.7-14.6-5c0,0.8,0.1,2.6,0.3,5.5c0.2,3,0.3,5.4,0.3,7.3c0,10.5-3.1,15.8-9.4,15.8
	c-2.6,0-4.7-0.9-6.3-2.7c-1.6-1.8-2.5-4-2.5-6.6v-68.4c0-2.5,0.8-4.7,2.5-6.5c1.7-1.8,3.8-2.7,6.3-2.7c3.8,0,6.5,1.9,8.2,5.6
	c3.7-4.5,8.8-6.8,15.2-6.8c8.1,0,14.8,3.4,20,10.2C140,307.9,142.4,315.2,142.4,323.6L142.4,323.6z M124.7,323.6
	c0-4.1-1-7.5-2.9-10.3c-2.2-3.1-5.2-4.7-9.1-4.7c-3.9,0-7,1.6-9.1,4.7c-1.9,2.8-2.9,6.2-2.9,10.3c0,4,1,7.5,2.9,10.4
	c2.2,3.1,5.2,4.7,9.1,4.7c3.9,0,7-1.6,9.1-4.7C123.7,331.1,124.7,327.6,124.7,323.6L124.7,323.6z M206.7,321.7c0,3-0.7,5-2.1,6.1
	c-1.4,1.1-3.6,1.7-6.5,1.7h-31.9c0,3.4,1.6,6,4.8,7.8c2.6,1.4,5.7,2.1,9.4,2.1c2.9,0,6.3-1,10.4-2.8c4-1.9,6.6-2.8,7.8-2.8
	c2.1,0,3.8,0.7,5.2,2.3c1.4,1.5,2.1,3.3,2.1,5.4c0,4.8-3.6,8.6-10.8,11.3c-5.5,2-11.1,3.1-16.8,3.1c-9.2,0-16.7-3.1-22.3-9.2
	c-5.7-6.1-8.5-13.8-8.5-23.1c0-8.8,3-16.4,8.9-22.7c5.9-6.3,13.2-9.5,22-9.5c8.1,0,14.9,3,20.4,8.9
	C204,306.4,206.7,313.5,206.7,321.7L206.7,321.7z M189,317.3c-0.1-2.7-1.3-5.2-3.7-7.4c-2.4-2.2-5-3.3-7.7-3.3
	c-2.8,0-5.4,1.1-7.8,3.3c-2.4,2.2-3.6,4.7-3.6,7.4H189L189,317.3z M266.1,345.4c0,2.6-0.8,4.8-2.5,6.6c-1.7,1.8-3.8,2.7-6.3,2.7
	c-6.2,0-9.3-4.9-9.3-14.7c0-1.9,0.1-4.8,0.4-8.9c0.3-4.1,0.4-7,0.4-8.9c0-10.4-3.4-15.6-10.1-15.6c-6.7,0-10,5.2-10,15.6
	c0,1.9,0.1,4.9,0.3,8.9c0.2,4.1,0.3,7,0.3,8.9c0,9.8-3,14.7-9.1,14.7c-2.6,0-4.7-0.9-6.3-2.7c-1.7-1.8-2.5-4-2.5-6.6v-43.6
	c0-2.6,0.8-4.7,2.5-6.5c1.6-1.8,3.8-2.7,6.3-2.7c4.2,0,7.2,1.9,8.8,5.6c2.9-4.5,7.9-6.8,15.1-6.8c6.7,0,12,1.8,15.9,5.3
	c4,3.8,6,9,6,15.6V345.4L266.1,345.4z M321.5,343.5c0,4-2.6,7.2-7.8,9.5c-4.1,1.9-8.5,2.8-13.1,2.8c-8.9,0-16.1-3.2-21.7-9.6
	c-5.3-6.1-8-13.7-8-22.6c0-9,2.7-16.6,8.2-22.8c5.5-6.2,12.6-9.3,21.5-9.3c5.1,0,9.6,0.8,13.2,2.3c5.1,2,7.7,5.2,7.7,9.5
	c0,2.2-0.7,4.1-2,5.8c-1.4,1.6-3.1,2.5-5.2,2.5c-1.4,0-3.5-0.5-6.2-1.4c-2.7-1-4.9-1.4-6.4-1.4c-4.2,0-7.5,1.5-9.8,4.5
	c-2.2,2.7-3.3,6.2-3.3,10.5c0,4,1,7.5,2.9,10.2c2.2,3.2,5.2,4.8,9.2,4.8c1.7,0,4.1-0.5,7.1-1.5c3-1,5.2-1.5,6.6-1.5
	c2,0,3.7,0.8,5.1,2.5C320.8,339.8,321.5,341.6,321.5,343.5L321.5,343.5z M385.8,345.4c0,2.6-0.8,4.8-2.5,6.6
	c-1.7,1.8-3.8,2.7-6.3,2.7c-3.8,0-6.6-1.9-8.2-5.6c-3.7,4.5-8.8,6.8-15.2,6.8c-8.2,0-14.9-3.4-20.1-10.3c-4.7-6.3-7.1-13.6-7.1-21.9
	s2.4-15.7,7.1-22c5.3-6.8,12-10.2,20.1-10.2c6.4,0,11.5,2.3,15.2,6.8c1.6-3.7,4.4-5.6,8.2-5.6c2.5,0,4.6,0.9,6.3,2.7
	c1.7,1.8,2.5,4,2.5,6.5L385.8,345.4L385.8,345.4z M368.1,323.6c0-4.1-1-7.5-2.9-10.3c-2.3-3.1-5.3-4.7-9.1-4.7c-3.9,0-7,1.6-9.1,4.7
	c-2,2.8-2.9,6.2-2.9,10.3c0,4,0.9,7.5,2.8,10.4c2.2,3.1,5.3,4.7,9.2,4.7c3.9,0,7-1.6,9.1-4.7C367.2,331.1,368.1,327.6,368.1,323.6
	L368.1,323.6z M430.9,300.6c0,3.8-1.8,6.4-5.5,7.8c-3.4,1.1-6.8,2.3-10.2,3.5c-3.7,2.1-5.5,6-5.5,11.8v21.7c0,2.6-0.8,4.8-2.5,6.6
	c-1.7,1.8-3.8,2.7-6.3,2.7c-2.6,0-4.7-0.9-6.3-2.7c-1.7-1.8-2.5-4-2.5-6.6v-43.6c0-2.6,0.8-4.7,2.5-6.5c1.7-1.8,3.8-2.7,6.3-2.7
	c4.2,0,7.2,1.9,8.8,5.6c3.8-4.5,7.8-6.8,12.2-6.8c2.5,0,4.6,0.9,6.4,2.7C430,296,430.9,298.1,430.9,300.6L430.9,300.6z M477,301.4
	c0,3.9-1.5,6.4-4.6,7.5c-1.5,0.5-4.7,0.8-9.5,0.8v35.7c0,2.6-0.8,4.8-2.5,6.6c-1.7,1.8-3.8,2.7-6.3,2.7c-2.5,0-4.6-0.9-6.3-2.7
	c-1.7-1.8-2.5-4-2.5-6.6v-35.7c-3.6,0-6.3-0.5-7.9-1.4c-2.3-1.3-3.4-3.6-3.4-6.9c0-3.3,1.2-5.6,3.5-6.8c1.6-0.9,4.2-1.4,7.8-1.4
	v-7.6c0-8.9,2.9-13.3,8.8-13.3c5.9,0,8.8,4.4,8.8,13.3v7.6c4.8,0,8,0.3,9.5,0.8C475.5,295.1,477,297.6,477,301.4L477,301.4z
	 M619,290.7c0-5.4-10.1-7.9-36-7.9c-60.9,0-76.4-2.6-92.9-20c7,10.4,10.8,30,75.1,29.1c67.2-1,26.2,17.3,14.3,38.1
	C601,310.7,618.9,298.1,619,290.7L619,290.7z M533.4,346.4c0,5.1-4.1,9.2-9.2,9.2c-5.1,0-9.2-4.1-9.2-9.2c0-5.1,4.1-9.2,9.2-9.2
	C529.3,337.2,533.4,341.3,533.4,346.4L533.4,346.4z M575.4,346.4c0,5.1-4.1,9.2-9.2,9.2c-5.1,0-9.2-4.1-9.2-9.2
	c0-5.1,4.1-9.2,9.2-9.2C571.2,337.2,575.4,341.3,575.4,346.4L575.4,346.4z"/>
</svg>
