<svg xmlns="http://www.w3.org/2000/svg" xmlns:xlink="http://www.w3.org/1999/xlink" width="517" zoomAndPan="magnify" viewBox="0 0 387.75 337.499995" height="450" preserveAspectRatio="xMidYMid meet" version="1.0"><defs><clipPath id="389ef1d00e"><path d="M 53 126.742188 L 87 126.742188 L 87 161 L 53 161 Z M 53 126.742188 " clip-rule="nonzero"/></clipPath><clipPath id="56b361cc79"><path d="M 33.863281 165 L 68 165 L 68 200 L 33.863281 200 Z M 33.863281 165 " clip-rule="nonzero"/></clipPath><clipPath id="e43bf99681"><path d="M 243 165 L 278 165 L 278 210.617188 L 243 210.617188 Z M 243 165 " clip-rule="nonzero"/></clipPath><clipPath id="aec2cd10c3"><path d="M 334 155 L 353.636719 155 L 353.636719 200 L 334 200 Z M 334 155 " clip-rule="nonzero"/></clipPath></defs><g clip-path="url(#389ef1d00e)"><path fill="#fcaf00" d="M 53.378906 126.769531 L 86.84375 126.769531 L 86.84375 160.378906 L 53.378906 160.378906 Z M 53.378906 126.769531 " fill-opacity="1" fill-rule="nonzero"/></g><g clip-path="url(#56b361cc79)"><path fill="#00e25a" d="M 33.863281 165.984375 L 67.328125 165.984375 L 67.328125 199.59375 L 33.863281 199.59375 Z M 33.863281 165.984375 " fill-opacity="1" fill-rule="nonzero"/></g><path fill="#3b88ff" d="M 72.902344 165.984375 L 106.367188 165.984375 L 106.367188 199.59375 L 72.902344 199.59375 Z M 72.902344 165.984375 " fill-opacity="1" fill-rule="nonzero"/><path fill="#000000" d="M 147.132812 192.96875 C 140.472656 192.96875 137.277344 190.742188 136.625 185.101562 L 127.375 185.101562 C 127.699219 195 134.878906 200.621094 147.53125 200.621094 C 158.023438 200.621094 165.664062 195.328125 165.664062 185.824219 C 165.664062 175.738281 157.835938 173.445312 148.238281 171.339844 C 141.335938 169.84375 138.074219 168.71875 138.074219 164.925781 C 138.074219 161.578125 141.402344 159.421875 146.484375 159.421875 C 151.570312 159.421875 154.96875 161.769531 155.484375 166.496094 L 164.546875 166.496094 C 163.828125 157.0625 157.042969 151.890625 146.550781 151.890625 C 136.0625 151.890625 128.679688 156.667969 128.679688 165.910156 C 128.679688 175.671875 136.304688 177.894531 144.644531 179.792969 C 151.769531 181.429688 156.203125 182.347656 156.203125 186.933594 C 156.203125 191.261719 151.960938 192.96875 147.136719 192.96875 " fill-opacity="1" fill-rule="nonzero"/><path fill="#000000" d="M 192.089844 199.589844 L 200.964844 199.589844 L 200.964844 177.636719 C 200.964844 170.289062 196.328125 165.050781 189.40625 165.050781 C 184.835938 165.050781 182.109375 166.828125 179.6875 170.363281 L 179.5 170.363281 L 179.5 152.734375 L 170.621094 152.734375 L 170.621094 199.589844 L 179.5 199.589844 L 179.5 180.515625 C 179.5 175.929688 182.367188 172.789062 186.28125 172.789062 C 189.988281 172.789062 192.082031 175.34375 192.082031 178.945312 L 192.082031 199.585938 Z M 192.089844 199.589844 " fill-opacity="1" fill-rule="nonzero"/><path fill="#000000" d="M 222.289062 200.570312 C 232.675781 200.570312 239.78125 192.832031 239.78125 182.808594 C 239.78125 172.785156 232.675781 165.046875 222.289062 165.046875 C 211.902344 165.046875 204.808594 172.789062 204.808594 182.808594 C 204.808594 192.828125 211.914062 200.570312 222.289062 200.570312 M 222.289062 171.808594 C 227.710938 171.808594 230.773438 176.257812 230.773438 182.808594 C 230.773438 189.359375 227.714844 193.742188 222.289062 193.742188 C 216.859375 193.742188 213.804688 189.363281 213.804688 182.808594 C 213.804688 176.253906 216.8125 171.808594 222.289062 171.808594 " fill-opacity="1" fill-rule="nonzero"/><g clip-path="url(#e43bf99681)"><path fill="#000000" d="M 262.484375 165.050781 C 257.917969 165.050781 254.792969 167.226562 252.628906 170.167969 L 252.441406 170.167969 L 252.441406 165.980469 L 243.890625 165.980469 L 243.890625 210.589844 L 252.769531 210.589844 L 252.769531 195.78125 L 252.90625 195.78125 C 254.796875 198.660156 257.851562 200.570312 262.558594 200.570312 C 271.179688 200.570312 277.03125 193.695312 277.03125 182.808594 C 277.03125 171.921875 271.367188 165.046875 262.488281 165.046875 M 260.671875 193.15625 C 255.382812 193.15625 252.585938 189.171875 252.585938 183.070312 C 252.585938 176.96875 254.800781 172.253906 260.34375 172.253906 C 265.890625 172.253906 268.039062 176.722656 268.039062 183.070312 C 268.039062 189.414062 265.171875 193.15625 260.671875 193.15625 " fill-opacity="1" fill-rule="nonzero"/></g><path fill="#000000" d="M 323.625 189.550781 C 322.648438 192.125 320.625 193.6875 317.171875 193.6875 C 312.140625 193.6875 309.273438 190.480469 308.621094 185.289062 L 332.882812 185.289062 C 332.882812 173.304688 327.148438 165.046875 316.378906 165.046875 C 306.59375 165.046875 299.878906 172.789062 299.878906 182.738281 C 299.878906 192.683594 306.128906 200.566406 317.21875 200.566406 C 325.835938 200.566406 331.128906 195.515625 332.363281 189.546875 L 323.625 189.546875 Z M 316.519531 171.929688 C 320.554688 171.929688 323.355469 174.875 323.625 179.136719 L 308.742188 179.136719 C 309.53125 174.757812 311.816406 171.929688 316.519531 171.929688 " fill-opacity="1" fill-rule="nonzero"/><g clip-path="url(#aec2cd10c3)"><path fill="#000000" d="M 334.394531 165.980469 L 334.394531 171.878906 L 339.03125 171.878906 L 339.03125 191.589844 C 339.03125 197.953125 343.785156 199.644531 348.09375 199.644531 C 351.613281 199.644531 353.636719 199.523438 353.636719 199.523438 L 353.636719 192.972656 C 353.636719 192.972656 352.128906 193.039062 351.03125 193.039062 C 349.074219 193.039062 347.695312 192.175781 347.695312 189.691406 L 347.695312 171.878906 L 353.433594 171.878906 L 353.433594 165.980469 L 345.703125 165.980469 C 345.703125 165.980469 347.335938 165.050781 347.695312 162.824219 L 347.695312 155.492188 L 339.027344 155.492188 L 339.027344 161.574219 C 338.890625 165.273438 334.386719 165.96875 334.386719 165.96875 L 334.402344 165.980469 L 334.386719 165.980469 Z M 334.394531 165.980469 " fill-opacity="1" fill-rule="nonzero"/></g><path fill="#000000" d="M 278.210938 165.980469 L 278.210938 171.878906 L 282.847656 171.878906 L 282.847656 191.589844 C 282.847656 197.953125 287.601562 199.644531 291.914062 199.644531 C 295.433594 199.644531 297.457031 199.523438 297.457031 199.523438 L 297.457031 192.972656 C 297.457031 192.972656 295.945312 193.039062 294.847656 193.039062 C 292.890625 193.039062 291.515625 192.175781 291.515625 189.691406 L 291.515625 171.878906 L 297.25 171.878906 L 297.25 165.980469 L 289.523438 165.980469 C 289.523438 165.980469 291.152344 165.050781 291.515625 162.824219 L 291.515625 155.492188 L 282.84375 155.492188 L 282.84375 161.574219 C 282.710938 165.273438 278.207031 165.96875 278.207031 165.96875 L 278.21875 165.980469 L 278.207031 165.980469 Z M 278.210938 165.980469 " fill-opacity="1" fill-rule="nonzero"/></svg>