<?xml version="1.0" encoding="UTF-8"?><svg id="Vrstva_2" xmlns="http://www.w3.org/2000/svg" viewBox="0 0 276.21 145.3"><defs><style>.cls-1{fill:#9d9d9c;}.cls-1,.cls-2{stroke-width:0px;}.cls-2{fill:#1d1d1b;}</style></defs><g id="kresba"><polygon class="cls-2" points="8.13 75.85 7.61 66.51 17.51 66.99 17.75 76.48 8.13 75.85"/><path class="cls-2" d="M94.78,25.13h16.38v50.72h-16.38v-6.14c-4.44,6.82-10.8,7.85-15.01,7.85-7.28,0-13.42-1.82-18.99-7.73-5.34-5.69-7.39-12.28-7.39-18.99,0-8.53,3.18-15.81,7.85-20.47,4.44-4.43,10.58-6.94,17.63-6.94,4.32,0,11.26,1.02,15.92,7.39v-5.69ZM73.97,41.17c-1.71,1.71-3.75,4.66-3.75,9.21s1.93,7.51,3.41,9.1c2.27,2.39,5.8,3.98,9.67,3.98,3.3,0,6.37-1.36,8.53-3.53,2.16-2.05,3.98-5.23,3.98-9.55,0-3.64-1.37-7.05-3.75-9.33-2.5-2.39-6.14-3.53-9.1-3.53-3.53,0-6.82,1.48-8.98,3.64Z"/><path class="cls-2" d="M150.14,38.1c-2.5-1.48-5.8-2.84-8.98-2.84-1.71,0-3.64.46-4.66,1.48-.57.57-1.02,1.48-1.02,2.27,0,1.14.8,1.82,1.59,2.28,1.14.68,2.85,1.02,4.89,1.71l4.32,1.36c2.84.91,5.8,2.05,8.42,4.44,2.96,2.73,3.98,5.8,3.98,9.67,0,6.71-2.96,11.03-5.23,13.31-5,5-11.15,5.8-16.49,5.8-6.82,0-14.21-1.48-20.81-7.28l6.94-11.03c1.59,1.36,3.87,2.96,5.57,3.75,2.27,1.14,4.66,1.59,6.83,1.59,1.02,0,3.64,0,5.12-1.14,1.02-.8,1.71-2.05,1.71-3.3,0-.91-.34-2.05-1.82-2.96-1.14-.68-2.62-1.14-5-1.82l-4.1-1.25c-2.96-.91-6.03-2.5-8.19-4.66-2.39-2.5-3.64-5.34-3.64-9.21,0-4.89,1.93-8.98,4.89-11.71,4.55-4.21,10.69-5.12,15.35-5.12,7.51,0,12.74,1.93,16.83,4.32l-6.48,10.35Z"/><path class="cls-2" d="M195.94,38.1c-2.5-1.48-5.8-2.84-8.98-2.84-1.71,0-3.64.46-4.66,1.48-.57.57-1.02,1.48-1.02,2.27,0,1.14.8,1.82,1.59,2.28,1.14.68,2.85,1.02,4.89,1.71l4.32,1.36c2.84.91,5.8,2.05,8.42,4.44,2.96,2.73,3.98,5.8,3.98,9.67,0,6.71-2.96,11.03-5.23,13.31-5,5-11.15,5.8-16.49,5.8-6.82,0-14.21-1.48-20.81-7.28l6.94-11.03c1.59,1.36,3.87,2.96,5.57,3.75,2.27,1.14,4.66,1.59,6.83,1.59,1.02,0,3.64,0,5.12-1.14,1.02-.8,1.71-2.05,1.71-3.3,0-.91-.34-2.05-1.82-2.96-1.14-.68-2.62-1.14-5-1.82l-4.1-1.25c-2.96-.91-6.03-2.5-8.19-4.66-2.39-2.5-3.64-5.34-3.64-9.21,0-4.89,1.93-8.98,4.89-11.71,4.55-4.21,10.69-5.12,15.35-5.12,7.51,0,12.74,1.93,16.83,4.32l-6.48,10.35Z"/><path class="cls-2" d="M17.51,66.99v-17.74h10.69c5.35,0,13.31-.57,19.33-6.71,2.84-2.96,6.48-8.3,6.48-17.85,0-5.23-.91-12.74-7.39-18.42C40.6.91,33.32,0,26.73,0H0v75.85h8.13v-8.87h9.38ZM17.51,14.33h5.91c3.41,0,7.16.34,9.78,2.84,1.71,1.59,2.84,4.21,2.84,7.39s-1.25,5.91-2.84,7.51c-2.84,2.73-7.05,2.84-9.44,2.84h-6.25V14.33Z"/><path class="cls-2" d="M54.76,73.24c-6.03-5.34-13.31-6.25-19.9-6.25h-17.34v8.87h-9.38v66.99h17.51v-26.61h10.69c5.35,0,13.31-.57,19.33-6.71,2.84-2.96,6.48-8.3,6.48-17.85,0-5.23-.91-12.74-7.39-18.42ZM41.34,99.06c-2.84,2.73-7.05,2.84-9.44,2.84h-6.25v-20.58h5.91c3.41,0,7.16.34,9.78,2.84,1.71,1.59,2.84,4.21,2.84,7.39s-1.25,5.91-2.84,7.51Z"/><rect class="cls-1" x="261.81" y="129.22" width="14.4" height="13.61"/><path class="cls-2" d="M66.07,92.12h16.38v7.96c1.48-2.84,3.75-5.46,6.37-7.05,2.73-1.71,5.57-2.16,8.76-2.16,2.05,0,3.52.23,5.34.8l-.91,15.35c-2.16-1.14-4.55-1.82-7.39-1.82-3.52,0-6.14,1.25-8.19,3.41-3.64,3.87-3.98,9.33-3.98,13.65v20.58h-16.38v-50.72Z"/><path class="cls-2" d="M155.56,136.36c-4.55,4.55-12.28,8.19-22.18,8.19s-17.63-3.64-22.17-8.19c-5.12-5.12-7.62-12.4-7.62-18.88s2.5-13.76,7.62-18.88c4.55-4.55,12.28-8.19,22.17-8.19s17.63,3.64,22.18,8.19c5.12,5.12,7.62,12.4,7.62,18.88s-2.5,13.76-7.62,18.88ZM124.18,107.93c-2.39,2.39-3.75,5.46-3.75,9.55,0,4.66,1.82,7.62,3.75,9.55,2.05,2.05,5,3.64,9.32,3.64,3.64,0,6.71-1.25,9.1-3.64,2.39-2.39,3.75-5.46,3.75-9.55s-1.36-7.16-3.75-9.55c-2.39-2.39-5.46-3.64-9.21-3.64s-6.82,1.25-9.21,3.64Z"/><path class="cls-1" d="M200.09,109.54c1.93-7.46,6.83-13.53,14.56-18.08,2.07-1.22,4.1-2.21,6.11-2.98l31.48-63.86h-17.97l-45.42,94.68-12.85-27.18h-17.97l25.7,50.72h10.24l7.43-15.08c-2.25-5.99-2.75-12.39-1.31-18.22Z"/><path class="cls-2" d="M254.98,106.13l-32.64,19.21c1.38,2.35,4.11,4.97,7.03,5.89,3.54,1.08,6.71-.25,8.87-1.52s3.98-2.87,4.94-4.62c.14-.21,1.17-2.27.9-5.42l14.14-6.47c1.67,7.33-.34,12.87-1.97,15.94-2.71,5.03-7.02,8.48-11.92,11.37-6.57,3.86-13.04,6.09-21.14,3.99-6.07-1.57-12.22-5.74-16.49-12.99-3.69-6.27-5.24-14.07-3.49-21.17,2.18-8.41,8.17-13.25,13.07-16.13,4.9-2.88,12.48-6.16,21.21-3.64,8.43,2.43,13.44,8.72,16.61,14.11l.87,1.47ZM236.99,105.37c-.33-.33-2.63-2.68-5.84-3.42-2.43-.55-5.26-.2-8.11,1.47-3.63,2.13-4.92,4.87-5.48,7.05-.39,1.81-.44,3.96.32,6.15l19.11-11.25Z"/></g></svg>